<?xml version="1.0" encoding="UTF-8" standalone="no"?><!DOCTYPE svg PUBLIC "-//W3C//DTD SVG 1.1//EN" "http://www.w3.org/Graphics/SVG/1.1/DTD/svg11.dtd"><svg width="100%" height="100%" viewBox="0 0 2819 866" version="1.1" xmlns="http://www.w3.org/2000/svg" xmlns:xlink="http://www.w3.org/1999/xlink" xml:space="preserve" xmlns:serif="http://www.serif.com/" style="fill-rule:evenodd;clip-rule:evenodd;stroke-linejoin:round;stroke-miterlimit:2;"><rect id="Artboard1" x="0" y="0" width="2818.98" height="865.699" style="fill:none;"/><clipPath id="_clip1"><rect x="0" y="0" width="2818.98" height="865.699"/></clipPath><g clip-path="url(#_clip1)"><path d="M237.793,699.612l0,-7.462l16.294,0c13.722,0 25.014,-1.865 33.875,-5.596c8.862,-3.731 15.294,-9.576 19.296,-17.536c4.003,-7.959 6.004,-18.654 6.004,-32.086l-0,-410.406c-0,-12.934 -2.144,-23.256 -6.432,-30.967c-4.288,-7.71 -10.863,-13.182 -19.725,-16.416c-8.862,-3.233 -20.154,-4.85 -33.875,-4.85l-15.437,-0l0,-7.462l216.115,0c68.036,0 119.348,10.571 153.938,31.713c34.59,21.142 51.885,53.104 51.885,95.886c-0,24.375 -5.717,45.393 -17.152,63.053c-11.435,17.66 -28.301,31.34 -50.598,41.041c-22.298,9.7 -50.027,16.043 -83.187,19.028l-0,1.492c61.175,2.487 105.484,15.546 132.927,39.175c27.443,23.629 41.165,56.338 41.165,98.124c-0,48.254 -16.866,84.196 -50.598,107.825c-33.732,23.629 -85.474,35.444 -155.225,35.444l-239.27,0Zm234.982,-7.462c44.595,0 76.183,-10.446 94.764,-31.34c18.581,-20.893 27.872,-55.467 27.872,-103.72c0,-31.341 -4.002,-56.711 -12.006,-76.112c-8.005,-19.401 -20.869,-33.703 -38.592,-42.906c-17.724,-9.203 -41.165,-13.805 -70.323,-13.805l-78.899,0l-0,267.883l77.184,0Zm-22.298,-275.345c30.302,0 54.172,-4.228 71.609,-12.685c17.438,-8.457 30.159,-21.391 38.164,-38.802c8.004,-17.411 12.006,-39.797 12.006,-67.157c-0,-44.274 -9.148,-75.987 -27.443,-95.14c-18.296,-19.152 -49.741,-28.728 -94.336,-28.728l-54.886,-0l-0,242.512l54.886,0Z" style="fill:#2a2a2a;fill-rule:nonzero;"/><path d="M2111.24,699.612l-0,-7.462l21.887,0c10.566,0 19.246,-1.616 26.039,-4.85c6.792,-3.233 12.704,-9.079 17.736,-17.535c5.032,-8.457 9.812,-20.396 14.34,-35.818l149.438,-467.116l43.02,0l170.571,487.263c3.522,9.95 7.17,17.66 10.943,23.132c3.774,5.473 8.177,9.328 13.208,11.566c5.032,2.239 11.321,3.358 18.869,3.358l7.547,0l0,7.462l-192.458,0l0,-7.462l18.868,0c17.611,0 29.938,-2.114 36.983,-6.342c7.044,-4.229 10.566,-11.069 10.566,-20.521c-0,-3.482 -0.377,-7.088 -1.132,-10.819c-0.755,-3.731 -1.761,-7.96 -3.019,-12.686c-1.258,-4.726 -2.642,-9.327 -4.151,-13.804l-40.756,-121.63l-188.684,0l-36.983,113.422c-2.012,4.974 -3.647,10.073 -4.905,15.297c-1.258,5.223 -2.265,9.949 -3.019,14.177c-0.755,4.229 -1.132,8.084 -1.132,11.566c-0,11.442 4.78,19.526 14.34,24.251c9.56,4.726 24.906,7.089 46.039,7.089l23.396,0l0,7.462l-167.551,0Zm132.079,-200.725l183.401,-0l-52.832,-162.67c-6.541,-19.401 -12.201,-36.688 -16.981,-51.861c-4.78,-15.172 -9.057,-28.852 -12.831,-41.04c-3.773,-12.188 -7.17,-23.505 -10.189,-33.952c-3.019,10.447 -5.786,19.774 -8.302,27.982c-2.516,8.208 -5.031,16.292 -7.547,24.251c-2.516,7.96 -5.283,16.417 -8.302,25.371c-3.019,8.954 -6.541,19.65 -10.567,32.086l-55.85,179.833Z" style="fill:#2a2a2a;fill-rule:nonzero;"/><path d="M1370.01,553.098c-17.731,0 -33.306,-2.504 -46.724,-7.513c-13.418,-5.008 -23.901,-12.357 -31.449,-22.048c-7.548,-9.69 -11.321,-21.612 -11.321,-35.767c-0,-10.452 2.276,-19.761 6.829,-27.927c4.552,-8.166 11.681,-15.189 21.385,-21.069c9.704,-5.879 22.104,-10.343 37.199,-13.392c-6.949,-7.839 -12.699,-15.025 -17.252,-21.558c-4.552,-6.533 -7.787,-12.848 -9.704,-18.945c-1.917,-6.097 -2.875,-12.521 -2.875,-19.272c-0,-11.105 2.635,-20.523 7.907,-28.254c5.271,-7.73 13.059,-13.664 23.362,-17.802c10.303,-4.137 23.002,-6.206 38.098,-6.206c15.095,0 27.555,2.014 37.379,6.043c9.824,4.028 17.132,9.472 21.924,16.332c4.792,6.859 7.189,14.753 7.189,23.681c-0,6.751 -1.618,13.501 -4.853,20.252c-3.234,6.75 -8.685,12.956 -16.353,18.618c-7.667,5.662 -18.33,10.453 -31.988,14.372l51.037,52.916c0.719,-6.097 1.318,-12.521 1.797,-19.272c0.479,-6.75 0.719,-13.828 0.719,-21.231l0,-15.026l76.555,0l0,3.267l-5.75,-0c-7.907,-0 -14.197,1.034 -18.87,3.103c-4.672,2.068 -8.266,5.498 -10.782,10.289c-2.516,4.791 -4.732,11.432 -6.649,19.925c-2.157,8.928 -4.313,16.822 -6.47,23.681c-2.156,6.86 -4.552,13.229 -7.188,19.109l33.066,33.97c6.23,6.315 11.202,11.16 14.916,14.535c3.714,3.376 6.769,5.662 9.165,6.86c2.396,1.198 4.672,1.796 6.829,1.796l0.719,0l-0,3.267l-73.68,-0l-19.768,-21.232c-6.23,5.662 -13.179,10.289 -20.846,13.882c-7.668,3.593 -15.934,6.261 -24.8,8.003c-8.865,1.742 -18.45,2.613 -28.753,2.613Zm14.017,-4.573c11.741,0 21.865,-2.45 30.371,-7.349c8.506,-4.9 15.514,-12.249 21.026,-22.048l-85.901,-89.826c-3.115,3.266 -5.75,7.567 -7.907,12.902c-2.156,5.335 -3.834,11.378 -5.032,18.129c-1.198,6.75 -1.797,14.263 -1.797,22.538c0,13.936 1.498,25.26 4.493,33.97c2.995,8.711 6.889,15.298 11.681,19.762c4.792,4.464 10.064,7.567 15.814,9.309c5.751,1.742 11.502,2.613 17.252,2.613Zm11.501,-138.821c4.793,-4.138 8.926,-10.398 12.4,-18.782c3.475,-8.384 5.212,-19.326 5.212,-32.827c-0,-10.017 -1.019,-18.02 -3.055,-24.008c-2.037,-5.989 -4.972,-10.398 -8.806,-13.229c-3.834,-2.831 -8.506,-4.247 -14.017,-4.247c-7.907,0 -14.017,2.831 -18.33,8.493c-4.313,5.662 -6.47,13.937 -6.47,24.825c0,6.75 1.019,13.065 3.055,18.945c2.037,5.879 5.511,11.976 10.423,18.292c4.912,6.315 11.442,13.827 19.588,22.538Z" style="fill:#aca784;fill-rule:nonzero;"/><path d="M920.679,-0l-920.679,-0l0,866.443l920.679,0l-0,-866.443Zm-25,25l-0,816.443c-131.23,0 -739.449,0 -870.679,0c0,0 0,-816.443 0,-816.443c0,-0 870.679,-0 870.679,-0l-0,0Z" style="fill:#2a2a2a;"/><path d="M2818.38,-0l-920.679,-0l0,866.443l920.679,0l0,-866.443Zm-25,25l0,816.443c0,0 -870.678,0 -870.678,0c-0.001,0 -0.001,-816.443 -0.001,-816.443c0.001,-0 870.679,-0 870.679,-0l0,0Z" style="fill:#2a2a2a;"/></g></svg>